<?xml version="1.0" encoding="utf-8"?>
<!-- Generator: Adobe Illustrator 23.0.6, SVG Export Plug-In . SVG Version: 6.00 Build 0)  -->
<svg version="1.1" xmlns="http://www.w3.org/2000/svg" xmlns:xlink="http://www.w3.org/1999/xlink" x="0px" y="0px"
	 viewBox="0 0 84 56" style="enable-background:new 0 0 84 56;" xml:space="preserve">
<style type="text/css">
	.st0{fill:#FFFFFF;}
	.st1{fill:none;stroke:#EDEBE9;stroke-miterlimit:10;}
	.st2{fill:#EDEBE9;stroke:#EDEBE9;stroke-miterlimit:10;}
	.st3{fill:#FCFCFC;stroke:#EDEBE9;stroke-miterlimit:10;}
	.st4{fill:#FFFFFF;stroke:#EDEBE9;stroke-miterlimit:10;}
	.st5{fill:#015CDA;}
	.st6{fill:#EDEBE9;}
	.st7{display:none;}
	.st8{display:inline;}
	.st9{fill:#FFFFFF;stroke:#015CDA;stroke-miterlimit:10;}
	.st10{fill:#FFFFFF;stroke:#E5E5E5;stroke-miterlimit:10;}
	.st11{fill:#FFFFFF;stroke:#A5A5A5;stroke-miterlimit:10;}
	.st12{fill:none;stroke:#014DB7;stroke-miterlimit:10;}
	.st13{fill:#8C8C8C;}
	.st14{fill:none;stroke:#000000;stroke-miterlimit:10;}
</style>
<g id="Layer_3">
</g>
<g id="body">
</g>
<g id="Layer_1">
</g>
<g id="Layer_4">
	<g>
		<path class="st6" d="M83.33,0H0.67C0.3,0,0,0.3,0,0.67v12.67h84V0.67C84,0.3,83.7,0,83.33,0z"/>
		<rect x="21.75" y="3.83" class="st3" width="58" height="7"/>
		<g>
			<rect x="5" y="17.17" class="st4" width="17.18" height="34"/>
			<rect x="21.95" y="17.17" class="st4" width="57.05" height="34"/>
		</g>
		<g>
			<g>
				<path class="st5" d="M82,1c0.55,0,1,0.45,1,1v52c0,0.55-0.45,1-1,1H2c-0.55,0-1-0.45-1-1V2c0-0.55,0.45-1,1-1H82 M82,0H2
					c-1.1,0-2,0.89-2,2v52c0,1.1,0.89,2,2,2h80c1.1,0,2-0.89,2-2V2C84,0.89,83.11,0,82,0L82,0z"/>
			</g>
		</g>
		<circle class="st0" cx="6.67" cy="7.33" r="1.5"/>
		<circle class="st0" cx="12" cy="7.33" r="1.5"/>
		<circle class="st0" cx="17.33" cy="7.33" r="1.5"/>
	</g>
</g>
</svg>
