<?xml version="1.0" encoding="utf-8"?>
<!-- Generator: Adobe Illustrator 23.0.6, SVG Export Plug-In . SVG Version: 6.00 Build 0)  -->
<svg version="1.1" id="Layer_1" xmlns="http://www.w3.org/2000/svg" xmlns:xlink="http://www.w3.org/1999/xlink" x="0px" y="0px"
	 viewBox="0 0 16 8" style="enable-background:new 0 0 16 8;" xml:space="preserve">
<style type="text/css">
	.st0{fill:#015CDA;}
</style>
<path class="st0" d="M8,0c0.78,0,1.55,0.1,2.3,0.3l2.1,0.8l1.9,1.3C14.91,2.88,15.48,3.42,16,4c-0.52,0.58-1.09,1.12-1.7,1.6
	l-1.9,1.3l-2.1,0.8C9.55,7.9,8.78,8,8,8C7.22,8,6.45,7.9,5.7,7.7L3.6,6.9L1.7,5.6C1.09,5.12,0.52,4.58,0,4
	c0.52-0.58,1.09-1.12,1.7-1.6l1.9-1.3l2.1-0.8C6.45,0.1,7.22,0,8,0L8,0z M1.4,4l1.5,1.3l1.8,1C4.47,5.96,4.31,5.59,4.2,5.2
	C4.08,4.81,4.02,4.41,4,4c0.02-0.41,0.08-0.81,0.2-1.2c0.11-0.39,0.27-0.76,0.5-1.1l-1.8,1L1.4,4z M11,4
	c-0.02-0.41-0.08-0.81-0.2-1.2l-0.7-0.9L9.2,1.2L8,1L6.8,1.2L5.9,1.9L5.2,2.8C5.08,3.19,5.02,3.59,5,4c0.02,0.41,0.08,0.81,0.2,1.2
	l0.7,0.9l0.9,0.7L8,7l1.2-0.2l0.9-0.7l0.7-0.9C10.92,4.81,10.98,4.41,11,4z M8,5H7.6L7.3,4.8L7.1,4.5C7.05,4.43,7.01,4.35,6.99,4.26
	C6.98,4.17,6.98,4.09,7,4C6.99,3.86,7.02,3.72,7.1,3.6c0-0.1,0.1-0.2,0.2-0.3l0.3-0.2h0.8l0.3,0.2c0.1,0.1,0.2,0.2,0.2,0.3
	C8.98,3.72,9.01,3.86,9,4c0.01,0.14-0.02,0.28-0.1,0.4L8.7,4.7L8.4,4.9L8,5z M11.3,6.3l1.8-1L14.6,4l-1.5-1.3l-1.8-1
	c0.23,0.34,0.39,0.71,0.5,1.1C11.92,3.19,11.98,3.59,12,4c-0.02,0.41-0.08,0.81-0.2,1.2C11.69,5.59,11.53,5.96,11.3,6.3z"/>
</svg>
