<svg xmlns="http://www.w3.org/2000/svg" viewBox="0 0 84 56"><defs><style>.cls-1{fill:#edebe9;}.cls-2{fill:#fcfcfc;}.cls-2,.cls-3{stroke:#edebe9;}.cls-2,.cls-3,.cls-4{stroke-miterlimit:10;}.cls-3,.cls-5{fill:#fff;}.cls-4{fill:none;stroke:#015cda;}</style></defs><title>results</title><g id="Layer_4" data-name="Layer 4"><path class="cls-1" d="M83.33,0H.67A.67.67,0,0,0,0,.67V13.33H84V.67A.67.67,0,0,0,83.33,0Z"/><rect class="cls-2" x="21.75" y="3.83" width="58" height="7"/><rect class="cls-3" x="5" y="17.17" width="17.18" height="34"/><rect class="cls-4" x="21.95" y="17.17" width="57.05" height="34"/><path class="cls-1" d="M82,1a1,1,0,0,1,1,1V54a1,1,0,0,1-1,1H2a1,1,0,0,1-1-1V2A1,1,0,0,1,2,1H82m0-1H2A2,2,0,0,0,0,2V54a2,2,0,0,0,2,2H82a2,2,0,0,0,2-2V2a2,2,0,0,0-2-2Z"/><circle class="cls-5" cx="6.67" cy="7.33" r="1.5"/><circle class="cls-5" cx="12" cy="7.33" r="1.5"/><circle class="cls-5" cx="17.33" cy="7.33" r="1.5"/></g></svg>