<?xml version="1.0" encoding="utf-8"?>
<!-- Generator: Adobe Illustrator 23.0.2, SVG Export Plug-In . SVG Version: 6.00 Build 0)  -->
<svg version="1.1" id="Layer_4" xmlns="http://www.w3.org/2000/svg" xmlns:xlink="http://www.w3.org/1999/xlink" x="0px" y="0px"
	 viewBox="0 0 126 84" style="enable-background:new 0 0 126 84;" xml:space="preserve">
<style type="text/css">
	.st0{fill:#FFFFFF;}
	.st1{fill:none;stroke:#EDEBE9;stroke-miterlimit:10;}
	.st2{fill:#EDEBE9;}
	.st3{fill:#FCFCFC;stroke:#EDEBE9;stroke-miterlimit:10;}
	.st4{fill:#FFFFFF;stroke:#EDEBE9;stroke-miterlimit:10;}
	.st5{fill:#015CDA;}
	.st6{display:none;}
	.st7{display:inline;}
	.st8{fill:#FFFFFF;stroke:#015CDA;stroke-miterlimit:10;}
</style>
<rect x="0" y="0" class="st0" width="126" height="84"/>
<path class="st2" d="M125,0H1C0.45,0,0,0.45,0,1v19h126V1C126,0.45,125.55,0,125,0z"/>
<g>
	<rect x="32.99" y="5.5" class="st0" width="86.26" height="9"/>
	<path class="st0" d="M118.75,6v8H33.49V6H118.75 M119.75,5H32.49v10h87.26V5L119.75,5z"/>
</g>
<rect x="32.61" y="25.5" class="st4" width="87.26" height="51.5"/>
<rect x="6.12" y="25.5" class="st8" width="26.49" height="51.5"/>
<circle class="st0" cx="10" cy="10" r="2"/>
<circle class="st0" cx="18" cy="10" r="2"/>
<circle class="st0" cx="26" cy="10" r="2"/>
<g>
	<g>
		<path class="st2" d="M124,1c0.55,0,1,0.45,1,1v80c0,0.55-0.45,1-1,1H2c-0.55,0-1-0.45-1-1V2c0-0.55,0.45-1,1-1H124 M124,0H2
			c-1.1,0-2,0.89-2,2v80c0,1.1,0.89,2,2,2h122c1.1,0,2-0.89,2-2V2C126,0.89,125.11,0,124,0L124,0z"/>
	</g>
</g>
</svg>
