<svg width="13" height="16" viewBox="0 0 13 16" fill="none" xmlns="http://www.w3.org/2000/svg">
<path d="M13 2.9H12V14.4C12.0146 14.6051 11.9803 14.8107 11.9 15L11.6 15.5L11.1 15.8H1.9L1.4 15.5L1.1 15C1.01969 14.8107 0.985415 14.6051 1 14.4V2.9H0V1.9H4V0.9C3.98504 0.75904 4.02046 0.617334 4.1 0.5L4.3 0.2L4.6 0H8.4L8.7 0.2L8.9 0.5C8.97954 0.617334 9.01496 0.75904 9 0.9V1.9H13V2.9ZM11 2.9H2V14.4C1.98504 14.541 2.02046 14.6827 2.1 14.8H10.9C10.9795 14.6827 11.015 14.541 11 14.4V2.9ZM5 12.9H4V4.9H5V12.9ZM5 1.9H8V0.9H5V1.9ZM7 12.9H6V4.9H7V12.9ZM9 12.9H8V4.9H9V12.9Z" fill="#015CDA"/>
</svg>
