<svg width="30" height="30" viewBox="0 0 30 30" fill="none" xmlns="http://www.w3.org/2000/svg">
<rect x="0.5" y="0.5" width="29" height="29" fill="white" stroke="#015CDA"/>
<path d="M22 9.9H21V21.4C21.0146 21.6051 20.9803 21.8107 20.9 22L20.6 22.5L20.1 22.8H10.9L10.4 22.5L10.1 22C10.0197 21.8107 9.98542 21.6051 10 21.4V9.9H9V8.9H13V7.9C12.985 7.75904 13.0205 7.61733 13.1 7.5L13.3 7.2L13.6 7H17.4L17.7 7.2L17.9 7.5C17.9795 7.61733 18.015 7.75904 18 7.9V8.9H22V9.9ZM20 9.9H11V21.4C10.985 21.541 11.0205 21.6827 11.1 21.8H19.9C19.9795 21.6827 20.015 21.541 20 21.4V9.9ZM14 19.9H13V11.9H14V19.9ZM14 8.9H17V7.9H14V8.9ZM16 19.9H15V11.9H16V19.9ZM18 19.9H17V11.9H18V19.9Z" fill="#015CDA"/>
</svg>
