<svg width="16" height="8" viewBox="0 0 16 8" fill="none" xmlns="http://www.w3.org/2000/svg">
<path d="M8 0C8.77632 0.00148348 9.54927 0.102302 10.3 0.3L12.4 1.1L14.3 2.4C14.9139 2.88086 15.4829 3.41638 16 4C15.4829 4.58362 14.9139 5.11914 14.3 5.6L12.4 6.9L10.3 7.7C9.54927 7.8977 8.77632 7.99852 8 8C7.22368 7.99852 6.45073 7.8977 5.7 7.7L3.6 6.9L1.7 5.6C1.08614 5.11914 0.517144 4.58362 0 4C0.517144 3.41638 1.08614 2.88086 1.7 2.4L3.6 1.1L5.7 0.3C6.45073 0.102302 7.22368 0.00148348 8 0V0ZM1.4 4L2.9 5.3L4.7 6.3C4.47418 5.96321 4.30526 5.59159 4.2 5.2C4.08474 4.80963 4.01757 4.40665 4 4C4.01757 3.59335 4.08474 3.19037 4.2 2.8C4.30526 2.40841 4.47418 2.03679 4.7 1.7L2.9 2.7L1.4 4ZM11 4C10.9824 3.59335 10.9153 3.19037 10.8 2.8L10.1 1.9L9.2 1.2L8 1L6.8 1.2L5.9 1.9L5.2 2.8C5.08474 3.19037 5.01757 3.59335 5 4C5.01757 4.40665 5.08474 4.80963 5.2 5.2L5.9 6.1L6.8 6.8L8 7L9.2 6.8L10.1 6.1L10.8 5.2C10.9153 4.80963 10.9824 4.40665 11 4ZM8 5H7.6L7.3 4.8L7.1 4.5C7.04763 4.42912 7.01153 4.34757 6.99424 4.26115C6.97696 4.17473 6.97893 4.08557 7 4C6.98504 3.85904 7.02046 3.71733 7.1 3.6C7.1 3.5 7.2 3.4 7.3 3.3L7.6 3.1H8.4L8.7 3.3C8.8 3.4 8.9 3.5 8.9 3.6C8.97954 3.71733 9.01496 3.85904 9 4C9.01496 4.14096 8.97954 4.28267 8.9 4.4L8.7 4.7L8.4 4.9L8 5ZM11.3 6.3L13.1 5.3L14.6 4L13.1 2.7L11.3 1.7C11.5258 2.03679 11.6947 2.40841 11.8 2.8C11.9153 3.19037 11.9824 3.59335 12 4C11.9824 4.40665 11.9153 4.80963 11.8 5.2C11.6947 5.59159 11.5258 5.96321 11.3 6.3Z" fill="black"/>
</svg>
