<svg width="12" height="12" viewBox="0 0 12 12" fill="none" xmlns="http://www.w3.org/2000/svg">
<path d="M6 11.25C8.8995 11.25 11.25 8.8995 11.25 6C11.25 3.10051 8.8995 0.75 6 0.75C3.10051 0.75 0.75 3.10051 0.75 6C0.75 8.8995 3.10051 11.25 6 11.25Z" fill="#636363"/>
<path d="M6 0.759494C8.89443 0.759494 11.2405 3.10557 11.2405 6C11.2405 8.89443 8.89443 11.2405 6 11.2405C3.10557 11.2405 0.759494 8.89443 0.759494 6C0.759494 3.10557 3.10557 0.759494 6 0.759494ZM6 0C2.69165 0 0 2.69165 0 6C0 9.30836 2.69165 12 6 12C9.30836 12 12 9.30836 12 6C12 2.69165 9.30836 0 6 0Z" fill="white"/>
<path d="M5.99953 4.40401C6.52351 4.40401 6.94828 3.97924 6.94828 3.45526C6.94828 2.93128 6.52351 2.50651 5.99953 2.50651C5.47555 2.50651 5.05078 2.93128 5.05078 3.45526C5.05078 3.97924 5.47555 4.40401 5.99953 4.40401Z" fill="white"/>
<path d="M6.7208 9.92174V5.33624H5.28605L5.2793 9.92174H6.7208Z" fill="white"/>
</svg>
